<?xml version="1.0" encoding="UTF-8" standalone="no"?>
<!-- Created with Inkscape (http://www.inkscape.org/) -->

<svg
   xmlns:dc="http://purl.org/dc/elements/1.1/"
   xmlns:cc="http://creativecommons.org/ns#"
   xmlns:rdf="http://www.w3.org/1999/02/22-rdf-syntax-ns#"
   xmlns:svg="http://www.w3.org/2000/svg"
   xmlns="http://www.w3.org/2000/svg"
   xmlns:sodipodi="http://sodipodi.sourceforge.net/DTD/sodipodi-0.dtd"
   xmlns:inkscape="http://www.inkscape.org/namespaces/inkscape"
   width="27.230412mm"
   height="27.230412mm"
   viewBox="0 0 96.48571 96.48571"
   id="svg2"
   version="1.1"
   inkscape:version="0.91 r13725"
   sodipodi:docname="cs.svg">
  <defs
     id="defs4" />
  <sodipodi:namedview
     id="base"
     pagecolor="#ffffff"
     bordercolor="#666666"
     borderopacity="1.0"
     inkscape:pageopacity="0.0"
     inkscape:pageshadow="2"
     inkscape:zoom="2.8"
     inkscape:cx="45.691994"
     inkscape:cy="53.767396"
     inkscape:document-units="px"
     inkscape:current-layer="layer1"
     showgrid="false"
     fit-margin-top="0"
     fit-margin-left="0"
     fit-margin-right="0"
     fit-margin-bottom="0"
     inkscape:window-width="754"
     inkscape:window-height="708"
     inkscape:window-x="600"
     inkscape:window-y="0"
     inkscape:window-maximized="0" />
  <metadata
     id="metadata7">
    <rdf:RDF>
      <cc:Work
         rdf:about="">
        <dc:format>image/svg+xml</dc:format>
        <dc:type
           rdf:resource="http://purl.org/dc/dcmitype/StillImage" />
        <dc:title />
      </cc:Work>
    </rdf:RDF>
  </metadata>
  <g
     inkscape:label="Calque 1"
     inkscape:groupmode="layer"
     id="layer1"
     transform="translate(-290.32859,-414.11936)">
    <circle
       style="fill:#37c837;fill-opacity:1;stroke:#37c837;stroke-width:2.20000005;stroke-linecap:round;stroke-linejoin:round;stroke-miterlimit:4;stroke-dasharray:none;stroke-opacity:1"
       id="path4136"
       cx="338.57144"
       cy="462.36221"
       r="47.142857" />
    <path
       style="fill:#ffffff;fill-opacity:1"
       d="m 326.97149,494.01254 c -0.0526,-0.20992 -0.45,-1.39207 -0.88292,-2.62699 l -0.78714,-2.2453 -0.65203,-0.18949 c -0.35862,-0.10422 -1.44613,-0.57702 -2.41669,-1.05068 l -1.76465,-0.8612 -2.43695,1.16965 -2.43695,1.16965 -2.00607,-1.992 -2.00608,-1.99199 1.11129,-2.36311 c 0.6112,-1.29971 1.11128,-2.42882 1.11128,-2.50914 0,-0.0803 -0.30525,-0.75736 -0.67834,-1.50455 -0.37308,-0.74719 -0.80149,-1.74367 -0.95202,-2.2144 -0.15053,-0.47074 -0.35589,-0.94384 -0.45636,-1.05134 -0.10047,-0.1075 -1.30018,-0.56872 -2.66603,-1.02495 l -2.48335,-0.8295 -0.0422,-2.86835 -0.0422,-2.86835 2.29862,-0.75649 c 2.94254,-0.96841 3.09462,-1.04827 3.21465,-1.68807 0.0533,-0.28392 0.51238,-1.33835 1.02027,-2.34318 l 0.92342,-1.82697 -1.18714,-2.49491 -1.18715,-2.49489 1.96028,-1.96029 1.96028,-1.96029 2.52078,1.20569 2.52077,1.20567 1.34521,-0.6209 c 0.73987,-0.3415 1.76539,-0.74607 2.27891,-0.89905 0.51353,-0.15298 1.01117,-0.35298 1.10585,-0.44444 0.0947,-0.0915 0.54987,-1.23492 1.01151,-2.54102 l 0.83933,-2.37472 2.85927,0.0405 2.85927,0.0405 0.87549,2.44412 0.87549,2.44412 1.32272,0.41299 c 0.72751,0.22714 1.80646,0.65203 2.39769,0.9442 l 1.07497,0.53123 2.48946,-1.18333 2.48947,-1.18335 1.97916,1.97477 1.97915,1.97476 -1.20846,2.51052 -1.20846,2.51051 0.43621,0.86414 c 0.23992,0.47528 0.66547,1.52621 0.94567,2.33541 0.28019,0.80919 0.5801,1.5188 0.66647,1.57691 0.0864,0.0581 1.19532,0.4781 2.46436,0.93332 l 2.30732,0.82768 -0.0422,2.85758 -0.0422,2.85757 -2.41202,0.88903 -2.41204,0.88904 -0.47898,1.46686 c -0.26343,0.80676 -0.67297,1.89854 -0.91007,2.42616 l -0.4311,0.95932 1.17341,2.46421 1.17341,2.46422 -1.98188,1.99014 -1.98188,1.99013 -2.47239,-1.17979 -2.47238,-1.17979 -0.94436,0.50628 c -0.51941,0.27846 -1.60508,0.75686 -2.41262,1.06311 l -1.46826,0.55683 -0.88734,2.56158 -0.88735,2.56156 -2.87869,0.0423 -2.87869,0.0423 -0.0958,-0.38167 z m 5.25101,-14.0327 c 3.16833,-0.8174 5.88325,-3.53233 6.70065,-6.70065 0.31295,-1.21305 0.3167,-3.30026 0.008,-4.48522 -0.45063,-1.73007 -1.11773,-2.87047 -2.46936,-4.22132 -2.63411,-2.6326 -5.97175,-3.45089 -9.4032,-2.30537 -2.80767,0.93729 -4.896,3.03558 -5.87694,5.905 -0.56721,1.65921 -0.60769,3.81989 -0.10192,5.4406 0.94928,3.04186 3.56244,5.57269 6.57453,6.36735 1.15446,0.30458 3.38682,0.30439 4.56818,-4.7e-4 z m 20.40355,-23.99458 -1.40499,-0.55304 0.062,-1.54282 0.062,-1.54282 -1.06899,-1.08943 -1.069,-1.08942 -1.56936,0.0936 -1.56937,0.0936 -0.60177,-1.48903 -0.60177,-1.48902 1.14349,-1.04596 1.14349,-1.04597 0.0285,-1.47535 0.0285,-1.47535 -1.15582,-1.08931 -1.15583,-1.0893 0.5987,-1.45993 0.5987,-1.45992 1.53821,0.0847 1.5382,0.0848 1.08283,-1.09798 1.08284,-1.09798 -0.053,-1.54444 -0.053,-1.54443 1.45736,-0.60118 1.45736,-0.60118 0.87659,0.94244 c 0.48213,0.51834 0.93259,1.03869 1.00104,1.15633 0.0923,0.15858 0.52153,0.21388 1.66027,0.21388 l 1.53582,0 1.06299,-1.1594 1.063,-1.15941 1.40053,0.58816 1.40054,0.58816 0.006,1.58146 0.006,1.58147 1.05354,1.05168 1.05353,1.05168 1.56982,0 1.56982,0 0.59442,1.40054 0.59442,1.40053 -1.16499,1.0893 -1.16498,1.08931 0.003,1.50842 c 0.003,1.28793 0.0452,1.53815 0.29086,1.71177 0.15821,0.11184 0.68651,0.56866 1.17399,1.01516 l 0.88634,0.81181 -0.60271,1.4446 -0.60271,1.44461 -1.54987,-0.0558 -1.54987,-0.0557 -1.05565,1.06724 -1.05565,1.06725 0.0787,1.56671 0.0787,1.56672 -1.41375,0.59863 -1.41374,0.59864 -0.56002,-0.60921 c -0.30801,-0.33505 -0.75157,-0.84095 -0.9857,-1.12419 -0.42251,-0.51117 -0.43618,-0.51512 -1.83896,-0.53034 l -1.41328,-0.0153 -1.12138,1.1139 c -0.61676,0.61265 -1.22478,1.10609 -1.35115,1.09653 -0.12637,-0.01 -0.86201,-0.26623 -1.63477,-0.5704 z m 6.47316,-7.12568 c 2.2998,-0.66372 3.71796,-2.43964 3.84386,-4.81355 0.089,-1.67726 -0.31868,-2.78851 -1.42751,-3.89156 -1.20605,-1.19974 -2.04782,-1.54812 -3.74974,-1.55188 -1.21903,-0.003 -1.51431,0.0528 -2.27844,0.42804 -2.07317,1.01811 -3.38781,3.51485 -2.94295,5.58921 0.26355,1.22888 0.69558,2.06686 1.45937,2.83065 1.45015,1.45015 3.23901,1.94485 5.09541,1.40909 z"
       id="path4149"
       inkscape:connector-curvature="0" />
  </g>
</svg>
