<?xml version="1.0" encoding="UTF-8" standalone="no"?>
<!-- Created with Inkscape (http://www.inkscape.org/) -->

<svg
   xmlns:dc="http://purl.org/dc/elements/1.1/"
   xmlns:cc="http://creativecommons.org/ns#"
   xmlns:rdf="http://www.w3.org/1999/02/22-rdf-syntax-ns#"
   xmlns:svg="http://www.w3.org/2000/svg"
   xmlns="http://www.w3.org/2000/svg"
   xmlns:sodipodi="http://sodipodi.sourceforge.net/DTD/sodipodi-0.dtd"
   xmlns:inkscape="http://www.inkscape.org/namespaces/inkscape"
   width="27.230412mm"
   height="27.230412mm"
   viewBox="0 0 96.48571 96.48571"
   id="svg2"
   version="1.1"
   inkscape:version="0.91 r13725"
   sodipodi:docname="embed.svg">
  <defs
     id="defs4" />
  <sodipodi:namedview
     id="base"
     pagecolor="#ffffff"
     bordercolor="#666666"
     borderopacity="1.0"
     inkscape:pageopacity="0.0"
     inkscape:pageshadow="2"
     inkscape:zoom="2.8"
     inkscape:cx="43.672677"
     inkscape:cy="41.284543"
     inkscape:document-units="px"
     inkscape:current-layer="layer1"
     showgrid="false"
     fit-margin-top="0"
     fit-margin-left="0"
     fit-margin-right="0"
     fit-margin-bottom="0"
     inkscape:window-width="671"
     inkscape:window-height="708"
     inkscape:window-x="683"
     inkscape:window-y="0"
     inkscape:window-maximized="0" />
  <metadata
     id="metadata7">
    <rdf:RDF>
      <cc:Work
         rdf:about="">
        <dc:format>image/svg+xml</dc:format>
        <dc:type
           rdf:resource="http://purl.org/dc/dcmitype/StillImage" />
        <dc:title />
      </cc:Work>
    </rdf:RDF>
  </metadata>
  <g
     inkscape:label="Calque 1"
     inkscape:groupmode="layer"
     id="layer1"
     transform="translate(-290.32859,-414.11936)">
    <circle
       style="fill:#37c871;fill-opacity:1;stroke:#37c871;stroke-width:2.20000005;stroke-linecap:round;stroke-linejoin:round;stroke-miterlimit:4;stroke-dasharray:none;stroke-opacity:1"
       id="path4136"
       cx="338.57144"
       cy="462.36221"
       r="47.142857" />
    <path
       style="fill:#ffffff;fill-opacity:1"
       d="m 324.56176,490.2481 c -0.51323,-0.18792 -0.87099,-0.49747 -1.21595,-1.05207 -0.23463,-0.37722 -0.245,-0.51017 -0.245,-3.13788 0,-2.59544 0.0137,-2.76822 0.24108,-3.19197 0.47003,-0.87338 1.12842,-1.23411 2.1047,-1.15314 0.79,0.0654 1.41146,0.47001 1.7286,1.12513 0.22204,0.45867 0.23756,0.66798 0.23756,3.2038 0,2.47179 -0.0195,2.75128 -0.21908,3.14251 -0.30654,0.60086 -0.79811,0.97702 -1.46316,1.11964 -0.67439,0.14468 -0.61268,0.1476 -1.16875,-0.0561 z m 8.83532,0.0339 c -0.49719,-0.19651 -0.99955,-0.63747 -1.23925,-1.08779 -0.18207,-0.34206 -0.21342,-0.71441 -0.24587,-2.9227 -0.042,-2.86117 0.0195,-3.25557 0.61016,-3.90933 0.47602,-0.52693 0.99066,-0.71391 1.78388,-0.64812 0.69922,0.058 1.28178,0.40559 1.64953,0.98421 0.23664,0.37236 0.25095,0.52662 0.28554,3.07995 0.0382,2.81002 -0.0137,3.2549 -0.43896,3.79593 -0.4856,0.61736 -1.71704,0.97981 -2.40503,0.70785 z m 8.82299,0.004 c -0.51903,-0.16805 -1.21841,-0.88466 -1.3596,-1.39313 -0.0676,-0.24347 -0.11776,-1.51081 -0.11679,-2.94713 0.001,-2.26314 0.0243,-2.56936 0.22186,-3.00477 0.24575,-0.54155 0.55268,-0.84901 1.08746,-1.08926 0.45279,-0.20344 1.27151,-0.20842 1.74492,-0.01 0.43486,0.18168 1.05046,0.85508 1.16902,1.27872 0.0471,0.16825 0.0856,1.51556 0.0856,2.99393 0,2.41601 -0.0212,2.72695 -0.20988,3.07326 -0.49927,0.91654 -1.67038,1.40729 -2.62262,1.09899 z m 8.88044,0.004 c -0.55546,-0.19414 -1.07584,-0.65122 -1.29773,-1.13985 -0.18577,-0.40917 -0.20962,-0.76682 -0.2118,-3.18142 -0.002,-2.45147 0.0195,-2.76153 0.20962,-3.13597 0.42334,-0.82943 1.09054,-1.18651 2.09725,-1.12241 0.57986,0.0369 0.78084,0.1054 1.12257,0.38189 0.83721,0.67758 0.88005,0.87062 0.88005,3.96495 0,2.3709 -0.0259,2.79119 -0.19024,3.09135 -0.31158,0.56883 -0.91274,1.01839 -1.54239,1.15344 -0.66132,0.14176 -0.62621,0.14215 -1.0673,-0.0121 z m -28.8957,-11.16442 c -0.54219,-0.25024 -0.88341,-0.60481 -1.11465,-1.15825 -0.15364,-0.3678 -0.1733,-2.20714 -0.1733,-16.2139 0,-14.00673 0.0196,-15.84609 0.1733,-16.2139 0.23124,-0.55342 0.57246,-0.908 1.11465,-1.15823 0.42887,-0.19793 1.12476,-0.20675 16.29582,-0.20675 15.17108,0 15.86697,0.01 16.29583,0.20675 0.5422,0.25023 0.88341,0.60481 1.11465,1.15823 0.15364,0.36792 0.17312,2.20584 0.17097,16.23832 -0.002,15.14444 -0.0121,15.84265 -0.20924,16.27142 -0.25021,0.5422 -0.60477,0.88341 -1.15823,1.11465 -0.36791,0.15364 -2.20583,0.1731 -16.23828,0.17096 -15.14446,-0.002 -15.84267,-0.0121 -16.27144,-0.20923 z m 25.14373,-17.37215 0,-6.60792 -8.84791,0 -8.84791,0 0,6.60792 0,6.60794 8.84791,0 8.84791,0 0,-6.60794 z m -35.72763,15.35627 c -0.54146,-0.11449 -0.8094,-0.27623 -1.20545,-0.7273 -0.91896,-1.04663 -0.56489,-2.75765 0.68844,-3.32681 0.40921,-0.18577 0.76687,-0.20962 3.18255,-0.2118 2.85506,-0.002 3.05935,0.0279 3.64632,0.54304 0.73366,0.64396 0.85067,2.11838 0.22907,2.8864 -0.66178,0.81766 -0.90705,0.87755 -3.68495,0.89971 -1.3552,0.0121 -2.64038,-0.0176 -2.85598,-0.0632 z m 48.5515,1e-4 c -1.19951,-0.31071 -1.81024,-1.13148 -1.71314,-2.30233 0.0654,-0.78997 0.47001,-1.41145 1.12513,-1.72858 0.45867,-0.22204 0.66799,-0.23756 3.2038,-0.23756 2.47179,0 2.75128,0.0195 3.14253,0.21909 0.60924,0.31079 0.98194,0.80549 1.12459,1.49274 0.20173,0.97173 -0.17681,1.77281 -1.11305,2.35511 -0.37156,0.2311 -0.53688,0.24626 -2.9139,0.26678 -1.38597,0.0121 -2.67116,-0.0176 -2.85596,-0.0653 z m -48.67004,-8.85019 c -1.2094,-0.38572 -1.88297,-1.58086 -1.53866,-2.73007 0.1698,-0.56662 0.86137,-1.26722 1.39805,-1.41626 0.24347,-0.0676 1.51082,-0.11776 2.94712,-0.11679 2.26314,0.001 2.56938,0.0244 3.00478,0.22185 0.80937,0.36729 1.25118,1.0552 1.25118,1.94815 0,0.6274 -0.15442,1.04222 -0.53911,1.44888 -0.63085,0.66676 -0.7381,0.68796 -3.60485,0.71281 -1.44759,0.0121 -2.76091,-0.0176 -2.91851,-0.0686 z m 48.34802,-0.0583 c -0.23871,-0.0876 -0.60316,-0.32316 -0.80988,-0.52353 -0.95782,-0.92836 -0.75273,-2.64416 0.40392,-3.37928 0.37235,-0.23666 0.52662,-0.25095 3.07996,-0.28554 1.69926,-0.023 2.83687,0.007 3.09281,0.084 0.79122,0.23524 1.31753,0.88339 1.49039,1.83542 0.14487,0.79748 -0.34004,1.70151 -1.15252,2.14899 -0.36952,0.2035 -0.64745,0.22652 -3.03868,0.2516 -2.05165,0.0217 -2.72768,-0.007 -3.066,-0.13163 z m -48.67415,-8.86159 c -0.50977,-0.2259 -0.76791,-0.46822 -1.00808,-0.94629 -0.58796,-1.1703 -0.23769,-2.35414 0.87805,-2.96759 0.3659,-0.20118 0.66053,-0.22737 2.9374,-0.26097 2.8612,-0.0423 3.2555,0.0195 3.90934,0.61 0.52692,0.47604 0.71387,0.99068 0.6481,1.78389 -0.058,0.69921 -0.40558,1.28177 -0.98421,1.64952 -0.37486,0.23825 -0.51432,0.25032 -3.19196,0.27641 -2.31927,0.0226 -2.86669,-0.002 -3.18864,-0.14507 z m 48.51138,-0.0512 c -0.54157,-0.24577 -0.84902,-0.55268 -1.08928,-1.08746 -0.20342,-0.4528 -0.20839,-1.27153 -0.01,-1.74492 0.18168,-0.43486 0.85508,-1.05048 1.27873,-1.16903 0.16823,-0.0471 1.51552,-0.0857 2.99392,-0.0857 2.41598,0 2.72696,0.0212 3.07326,0.20987 0.91879,0.50051 1.39269,1.60207 1.10391,2.56596 -0.16979,0.56661 -0.86138,1.26721 -1.39807,1.41626 -0.24344,0.0676 -1.51079,0.11788 -2.94711,0.11679 -2.26314,-10e-4 -2.56939,-0.0244 -3.00477,-0.22186 z m -48.64113,-8.84765 c -0.59095,-0.31224 -0.96024,-0.81129 -1.10054,-1.48717 -0.20174,-0.97171 0.17681,-1.77279 1.11305,-2.3551 0.37722,-0.23463 0.51019,-0.245 3.13789,-0.245 2.59545,0 2.76822,0.0136 3.19196,0.24108 0.87339,0.47003 1.23412,1.12842 1.15316,2.10469 -0.0654,0.79001 -0.47001,1.41147 -1.12513,1.7286 -0.46004,0.22271 -0.66195,0.23726 -3.22735,0.23262 -2.4757,-0.004 -2.77537,-0.0256 -3.14304,-0.21972 z m 48.56593,0.0382 c -0.86479,-0.45692 -1.21942,-1.10919 -1.15481,-2.12406 0.0368,-0.57854 0.1054,-0.77978 0.38183,-1.12135 0.6776,-0.83718 0.87062,-0.88002 3.96494,-0.88002 3.04824,0 3.11686,0.0136 3.78017,0.76943 0.92024,1.04809 0.56704,2.75866 -0.6872,3.32824 -0.41052,0.18634 -0.76138,0.20913 -3.20496,0.20732 -2.28584,-0.001 -2.80007,-0.0317 -3.07997,-0.17954 z m -35.27964,-8.83153 c -0.18479,-0.0929 -0.49739,-0.35012 -0.69463,-0.57177 -0.5306,-0.59625 -0.62232,-1.23702 -0.57325,-4.00442 0.0464,-2.61811 0.0815,-2.76628 0.80534,-3.40181 1.04809,-0.92022 2.75866,-0.56705 3.32824,0.68719 0.18576,0.40921 0.20961,0.76687 0.21182,3.18255 0.002,2.85506 -0.0279,3.05935 -0.54305,3.64632 -0.51545,0.58722 -1.81381,0.82388 -2.53447,0.46194 z m 8.84582,0.0137 c -0.41724,-0.18187 -1.02936,-0.8633 -1.14428,-1.27398 -0.0471,-0.16823 -0.0857,-1.51553 -0.0857,-2.9939 0,-2.416 0.0212,-2.72695 0.2099,-3.07325 0.5005,-0.9188 1.60205,-1.39272 2.56595,-1.10393 0.56659,0.16981 1.26722,0.86137 1.41624,1.39806 0.0676,0.24347 0.11776,1.51082 0.11679,2.94711 -10e-4,2.26314 -0.0244,2.56939 -0.22183,3.00477 -0.24576,0.54157 -0.55269,0.84901 -1.08747,1.08928 -0.44477,0.19983 -1.31784,0.20271 -1.76967,0.006 z m 8.92315,0.0366 c -0.39485,-0.15812 -0.81503,-0.51852 -1.07383,-0.92088 -0.21435,-0.33322 -0.23398,-0.55684 -0.26771,-3.04757 -0.0382,-2.81002 0.0137,-3.2549 0.43894,-3.79593 0.47496,-0.60382 1.64727,-0.96279 2.35537,-0.72121 0.51039,0.17409 1.00315,0.59445 1.27366,1.08646 0.20119,0.3659 0.22738,0.66052 0.26098,2.93739 0.0241,1.63629 -0.007,2.69568 -0.0884,2.99744 -0.1517,0.56324 -0.70793,1.22566 -1.20291,1.43248 -0.41151,0.17194 -1.30458,0.18868 -1.69617,0.0317 z m 8.62561,-0.12067 c -0.2837,-0.1404 -0.60924,-0.42752 -0.78399,-0.69139 l -0.29884,-0.45127 -0.0333,-2.83045 c -0.0311,-2.64837 -0.0195,-2.85872 0.19103,-3.27038 0.31601,-0.61942 0.80731,-0.99167 1.49809,-1.13507 0.97173,-0.20174 1.77282,0.17681 2.35512,1.11305 0.23463,0.37722 0.24501,0.51018 0.24501,3.13789 0,2.95626 -0.0243,3.09631 -0.65711,3.78973 -0.55118,0.604 -1.67383,0.75475 -2.516,0.33789 z"
       id="path4223"
       inkscape:connector-curvature="0" />
  </g>
</svg>
