<?xml version="1.0" encoding="UTF-8" standalone="no"?>
<svg
   xmlns:dc="http://purl.org/dc/elements/1.1/"
   xmlns:cc="http://creativecommons.org/ns#"
   xmlns:rdf="http://www.w3.org/1999/02/22-rdf-syntax-ns#"
   xmlns:svg="http://www.w3.org/2000/svg"
   xmlns="http://www.w3.org/2000/svg"
   xmlns:sodipodi="http://sodipodi.sourceforge.net/DTD/sodipodi-0.dtd"
   xmlns:inkscape="http://www.inkscape.org/namespaces/inkscape"
   version="1.1"
   id="svg2"
   viewBox="0 0 96.48571 96.48571"
   height="27.230412mm"
   width="27.230412mm"
   inkscape:version="0.91 r13725"
   sodipodi:docname="warn.svg">
  <sodipodi:namedview
     pagecolor="#ffffff"
     bordercolor="#666666"
     borderopacity="1"
     objecttolerance="10"
     gridtolerance="10"
     guidetolerance="10"
     inkscape:pageopacity="0"
     inkscape:pageshadow="2"
     inkscape:window-width="754"
     inkscape:window-height="708"
     id="namedview9"
     showgrid="false"
     inkscape:zoom="3.4591071"
     inkscape:cx="42.502712"
     inkscape:cy="55.915879"
     inkscape:window-x="600"
     inkscape:window-y="0"
     inkscape:window-maximized="0"
     inkscape:current-layer="svg2" />
  <defs
     id="defs4" />
  <metadata
     id="metadata7">
    <rdf:RDF>
      <cc:Work
         rdf:about="">
        <dc:format>image/svg+xml</dc:format>
        <dc:type
           rdf:resource="http://purl.org/dc/dcmitype/StillImage" />
        <dc:title />
      </cc:Work>
    </rdf:RDF>
  </metadata>
  <circle
     style="fill:#ff7f2a;fill-opacity:1;stroke:#ff7f2a;stroke-width:2.20000005;stroke-linecap:round;stroke-linejoin:round;stroke-miterlimit:4;stroke-dasharray:none;stroke-opacity:1"
     id="path4136"
     cx="48.242851"
     cy="48.242851"
     r="47.142857" />
  <path
     inkscape:connector-curvature="0"
     id="path4265"
     d="m 45.53931,80.5447 c -0.94232,-0.20135 -1.51833,-1.02941 -2.1341,-3.06798 -0.27135,-0.89835 -0.83925,-2.78837 -1.26197,-4.20005 -0.45386,-1.51565 -0.95989,-2.64009 -1.23574,-2.74594 -0.64186,-0.24631 -1.27003,0.12963 -4.98567,2.98375 -1.78238,1.36912 -3.51609,2.47737 -3.87549,2.47737 -0.64134,0 -3.70743,-2.0311 -5.29802,-3.50963 -0.44917,-0.41752 -0.81668,-0.999 -0.81668,-1.29217 0,-0.29317 0.66819,-2.36832 1.48487,-4.61145 0.81668,-2.24314 1.48487,-4.17375 1.48487,-4.29027 0,-0.11652 -0.22149,-0.43335 -0.49221,-0.70405 -0.42587,-0.42589 -1.12471,-0.47877 -5.18567,-0.39244 -3.87526,0.0823 -4.76889,0.0221 -5.12607,-0.34569 -0.23793,-0.245 -0.8567,-1.82133 -1.37502,-3.50295 -0.83766,-2.71764 -0.89584,-3.12765 -0.52335,-3.68864 0.23049,-0.34713 2.01346,-1.71085 3.96216,-3.03048 4.84166,-3.2787 4.84166,-3.20012 6e-4,-6.5365 -2.04837,-1.41173 -3.87002,-2.83904 -4.04812,-3.17181 -0.25592,-0.4782 -0.12987,-1.22111 0.60121,-3.54331 0.50876,-1.61603 1.1297,-3.14293 1.37987,-3.3931 0.3713,-0.37129 1.34443,-0.45485 5.29736,-0.45485 3.93388,0 4.91161,-0.0833 5.21078,-0.44376 0.45983,-0.55405 0.38044,-0.89788 -1.30157,-5.63641 -0.7522,-2.11907 -1.29235,-4.09006 -1.20033,-4.37996 0.26228,-0.82638 5.04944,-4.09186 5.99614,-4.09017 0.57101,6.7e-4 1.83078,0.7954 4.22852,2.66638 3.3201,2.59071 4.36151,3.07337 4.97662,2.30649 0.16376,-0.20416 0.85717,-2.24047 1.54089,-4.5251 1.56087,-5.21558 1.69561,-5.3614 4.90871,-5.3122 3.8293,0.0586 4.14451,0.0823 3.93126,0.29557 -0.11141,0.11141 0.008,0.35611 0.2641,0.54378 0.25666,0.18768 1.04115,2.27228 1.74331,4.63247 1.71865,5.77689 1.58963,5.73415 6.37694,2.11252 1.9785,-1.49675 3.84757,-2.72136 4.15348,-2.72136 0.30592,0 1.7386,0.84876 3.18375,1.88613 2.14862,1.54234 2.64345,2.04304 2.71487,2.74701 0.048,0.47349 -0.52136,2.63771 -1.26532,4.80936 -1.83361,5.3524 -2.01621,5.10925 3.83691,5.10925 2.5126,0 4.77255,0.0783 5.02211,0.17411 0.25874,0.0993 0.92205,1.57954 1.54347,3.44451 0.86282,2.58935 1.02623,3.40982 0.78471,3.93988 -0.16777,0.36821 -1.92051,1.7644 -3.89499,3.10263 -4.71192,3.19358 -4.71179,3.0897 -0.008,6.30353 1.9703,1.34608 3.72282,2.70987 3.89449,3.03063 0.23089,0.43145 0.18061,1.01756 -0.19321,2.25222 -0.4756,1.57079 -1.776554,2.215908 -2.16886,4.31703 -3.052715,2.403118 -4.201651,5.55649 -6.659584,6.355596 -3.578294,1.163349 -0.715204,7.028236 -5.376564,10.187608 -2.465716,1.002822 -9.724752,-4.353629 -11.320086,-2.472261 -1.196554,1.411089 -1.270116,3.128337 -1.501816,4.183237 -0.38607,1.75781 -1.03019,2.12765 -3.91624,2.24861 -1.4424,0.0605 -2.95334,0.0392 -3.35764,-0.0471 z m 5.541473,-21.285248 c 5.039105,-2.257589 6.43076,-4.251293 8.802301,-7.881797 1.277776,-1.956099 1.095816,-4.847305 0.476936,-7.131475 -0.99203,-3.66143 -3.52666,-6.69144 -7.02808,-8.40167 -1.90157,-0.92882 -2.18366,-0.98134 -5.27571,-0.98245 -3.06487,-10e-4 -3.39152,0.0579 -5.28662,0.95556 -2.47173,1.17075 -5.0842,3.71266 -6.20335,6.03582 -3.31161,6.87427 0.47478,15.3226 7.92628,17.68539 2.18554,0.69301 4.747324,0.545379 6.588243,-0.279378 z"
     style="fill:#ffffff;fill-opacity:1"
     sodipodi:nodetypes="csscssssssccssssscssscsccscssccsssscssccssccscscsscccssssccsss" />
  <path
     inkscape:connector-curvature="0"
     style="fill:#ff2828;fill-opacity:1"
     d="m 63.47355,46.93218 c -7.14239,-0.01 -13.06892,4.20491 -15.8661,11.28155 -0.90341,2.28556 -1.13279,6.88522 -0.47388,9.50492 1.67327,6.65262 7.15575,11.6502 13.72056,12.61967 0.11604,0.0378 0.39012,0.0696 0.76565,0.0951 0.0325,0.003 0.0648,0.008 0.0975,0.011 5.40961,0.49903 10.18895,-1.18003 13.78669,-4.84324 3.17715,-3.23498 4.80979,-7.15595 4.82874,-11.5965 0.0214,-5.0233 -1.49048,-8.7389 -4.96737,-12.20727 -3.38806,-3.37976 -7.00374,-4.8589 -11.89173,-4.86527 z m 0.16415,7.45742 c 0.44755,-0.006 0.89164,0.22462 1.35958,0.69255 0.84753,0.84754 0.92747,2.20198 0.43211,7.33214 -0.40606,4.20551 -0.54609,4.91547 -1.07247,5.44182 -0.55724,0.55725 -0.74313,0.56413 -1.43846,0.0558 -0.65923,-0.48204 -0.93621,-2.27848 -1.22387,-7.94522 l -0.20649,-4.0747 0.76913,-0.7697 c 0.48191,-0.48192 0.93291,-0.72599 1.38047,-0.73257 z m 0.051,16.00007 c 0.88693,0 2.03765,1.12393 2.03765,1.99067 0,0.33889 -0.23388,0.88691 -0.51971,1.21748 -1.32208,1.52899 -3.63795,0.66642 -3.63795,-1.35495 0,-0.78227 1.2249,-1.8532 2.12001,-1.8532 z"
     id="path4259" />
</svg>
