<?xml version="1.0" encoding="UTF-8" standalone="no"?>
<!-- Created with Inkscape (http://www.inkscape.org/) -->

<svg
   xmlns:dc="http://purl.org/dc/elements/1.1/"
   xmlns:cc="http://creativecommons.org/ns#"
   xmlns:rdf="http://www.w3.org/1999/02/22-rdf-syntax-ns#"
   xmlns:svg="http://www.w3.org/2000/svg"
   xmlns="http://www.w3.org/2000/svg"
   xmlns:sodipodi="http://sodipodi.sourceforge.net/DTD/sodipodi-0.dtd"
   xmlns:inkscape="http://www.inkscape.org/namespaces/inkscape"
   width="27.230412mm"
   height="27.230412mm"
   viewBox="0 0 96.48571 96.48571"
   id="svg2"
   version="1.1"
   inkscape:version="0.91 r13725"
   sodipodi:docname="forum.svg">
  <defs
     id="defs4" />
  <sodipodi:namedview
     id="base"
     pagecolor="#ffffff"
     bordercolor="#666666"
     borderopacity="1.0"
     inkscape:pageopacity="0.0"
     inkscape:pageshadow="2"
     inkscape:zoom="1.4"
     inkscape:cx="49.312712"
     inkscape:cy="37.34202"
     inkscape:document-units="px"
     inkscape:current-layer="layer1"
     showgrid="false"
     fit-margin-top="0"
     fit-margin-left="0"
     fit-margin-right="0"
     fit-margin-bottom="0"
     inkscape:window-width="1366"
     inkscape:window-height="714"
     inkscape:window-x="-6"
     inkscape:window-y="0"
     inkscape:window-maximized="1" />
  <metadata
     id="metadata7">
    <rdf:RDF>
      <cc:Work
         rdf:about="">
        <dc:format>image/svg+xml</dc:format>
        <dc:type
           rdf:resource="http://purl.org/dc/dcmitype/StillImage" />
        <dc:title></dc:title>
      </cc:Work>
    </rdf:RDF>
  </metadata>
  <g
     inkscape:label="Calque 1"
     inkscape:groupmode="layer"
     id="layer1"
     transform="translate(-290.32859,-414.11936)">
    <circle
       style="fill:#ffdf55;fill-opacity:1;stroke:none;stroke-width:2.20000005;stroke-linecap:round;stroke-linejoin:round;stroke-miterlimit:4;stroke-dasharray:none;stroke-opacity:1"
       id="path4136"
       cx="338.57144"
       cy="462.36221"
       r="47.142857" />
    <path
       style="fill:#ffffff;fill-opacity:1"
       d="m 315.68882,488.29069 c 3.15589,-1.16292 8.47564,-4.45619 10.33492,-6.39799 l 0.98147,-1.02502 3.47256,0.13471 c 2.75665,0.10694 4.08897,0.008 6.46238,-0.48321 7.52316,-1.55488 12.80155,-5.24475 15.62316,-10.92143 1.06241,-2.13744 1.22264,-2.7358 1.35522,-5.06105 0.17866,-3.13349 -0.20255,-5.16147 -1.44441,-7.68406 -2.24153,-4.5532 -7.05431,-8.23247 -13.23611,-10.11872 -2.36854,-0.72272 -3.07744,-0.7999 -7.51469,-0.81813 -4.23678,-0.0174 -5.21222,0.0703 -7.21211,0.6481 -6.0666,1.75294 -10.97388,5.18546 -13.40676,9.37768 -1.5024,2.58886 -2.02432,4.82913 -1.87844,8.06296 0.1873,4.15174 1.48244,7.04004 4.6181,10.29883 1.30894,1.36035 1.33432,1.42365 1.16016,2.89414 -0.24444,2.06399 -1.01633,5.04688 -1.86902,7.22267 -0.78627,2.00631 -0.89882,3.18278 -0.3564,3.7252 0.3605,0.3605 2.09145,0.44694 2.90997,0.14532 z m 50.40477,-8.43416 c 0.56475,-0.58073 0.46957,-1.16645 -0.81304,-5.0033 -0.65132,-1.94838 -1.26987,-4.46411 -1.37456,-5.59053 l -0.19034,-2.04802 1.37091,-1.37093 c 2.9148,-2.91479 4.32948,-5.97798 4.5602,-9.87418 0.2369,-4.00063 -0.67841,-6.77085 -3.41367,-10.33168 -2.41253,-3.1407 -7.17666,-6.03849 -12.09114,-7.35446 -3.5036,-0.93817 -9.40534,-0.93475 -13.06516,0.008 -4.28178,1.10246 -9.35347,3.81672 -9.35347,5.00579 0,0.15666 1.50324,0.35939 3.34053,0.45049 7.20255,0.35716 13.5509,3.23296 17.58162,7.96451 2.80981,3.29834 4.02285,6.54995 4.01603,10.76513 -0.007,4.25932 -1.09348,7.8325 -3.11099,10.23018 l -0.7728,0.91842 2.27409,1.80714 c 3.99437,3.17418 9.94039,5.55645 11.04179,4.42388 z"
       id="path4261"
       inkscape:connector-curvature="0" />
  </g>
</svg>
